<svg width="331" height="512" viewBox="0 0 331 512" fill="none" xmlns="http://www.w3.org/2000/svg">
<g clip-path="url(#clip0)">
<path d="M316 211H191.785L299.039 22.4141C301.679 17.7734 301.648 12.0742 298.965 7.45703C296.281 2.83984 291.34 0 286 0H106C99.5388 0 93.8005 4.14063 91.7654 10.2734L1.76535 281.27C0.245818 285.844 1.01535 290.867 3.83566 294.777C6.65597 298.684 11.1794 301 15.9997 301H143.293L62.2029 491.113C59.3161 497.883 61.7614 505.742 67.9802 509.676C74.1989 513.609 82.3513 512.449 87.2302 506.945L327.23 235.945C335.777 226.289 328.91 211 316 211V211ZM126.078 417.832L179.797 291.887C184.008 282.012 176.758 271 166 271H36.7849L116.824 30H260.211L152.961 218.582C147.289 228.555 154.496 241 166 241H282.679L126.078 417.832Z" fill="#F9B851"/>
</g>
<defs>
<clipPath id="clip0">
<rect width="331" height="512" fill="white"/>
</clipPath>
</defs>
</svg>
