<svg width="341" height="86" viewBox="0 0 341 86" fill="none" xmlns="http://www.w3.org/2000/svg">
<g clip-path="url(#clip0)">
<path d="M2.26392 58.1818V52.3754H8.17337V16.1973H2.26392V10.3909H14.5638V29.631C17.8392 25.8746 21.859 23.9964 26.6232 23.9964C31.2042 23.9964 35.0407 25.5768 38.1329 28.7377C41.2479 31.8756 42.8055 36.0214 42.8055 41.175C42.8055 46.1224 41.2823 50.2911 38.236 53.681C35.2125 57.048 31.3301 58.7315 26.5888 58.7315C23.9319 58.7315 21.504 58.1589 19.3051 57.0137C17.1063 55.8684 15.5258 54.5972 14.5638 53.2V58.1818H2.26392ZM14.77 41.6216C14.77 45.0803 15.8236 47.8288 17.9308 49.8674C20.061 51.883 22.5118 52.8908 25.2833 52.8908C28.1922 52.8908 30.7003 51.8143 32.8075 49.6612C34.9148 47.5082 35.9684 44.6222 35.9684 41.0032C35.9684 37.4988 34.9148 34.7845 32.8075 32.8605C30.7232 30.9136 28.2724 29.9402 25.4551 29.9402C22.6836 29.9402 20.2099 30.948 18.0339 32.9636C15.8579 34.9563 14.77 37.8423 14.77 41.6216ZM58.1054 52.3754V16.1973H52.196V10.3909H64.6333V52.3754H69.7182V58.1818H52.196V52.3754H58.1054ZM128.399 58.1818V46.7752H134.24V47.8747C134.446 49.4322 135.282 50.7148 136.748 51.7227C138.237 52.7305 139.989 53.2344 142.004 53.2344C144.112 53.2344 145.795 52.8679 147.055 52.1349C148.315 51.402 148.945 50.3827 148.945 49.0772C148.945 47.8174 148.418 46.8897 147.364 46.2942C146.333 45.6987 144.272 45.149 141.18 44.6451C136.599 43.8663 133.324 42.618 131.354 40.9001C129.407 39.1594 128.433 36.9147 128.433 34.1661C128.433 31.3946 129.498 29.0812 131.629 27.2259C133.759 25.3478 136.565 24.4087 140.046 24.4087C143.184 24.4087 145.887 25.05 148.154 26.3327V24.924H153.961V35.9527H148.154V33.9256C146.391 31.1999 143.825 29.8371 140.458 29.8371C138.741 29.8371 137.32 30.215 136.198 30.9709C135.099 31.7038 134.549 32.6887 134.549 33.9256C134.549 35.1854 135.053 36.0558 136.061 36.5368C137.091 36.9949 139.29 37.4873 142.657 38.0141C145.887 38.518 148.326 39.1136 149.975 39.8007C151.624 40.4649 152.987 41.5873 154.064 43.1677C155.163 44.7252 155.713 46.5462 155.713 48.6305C155.713 51.7227 154.522 54.1849 152.14 56.0173C149.781 57.8268 146.711 58.7315 142.932 58.7315C139.382 58.7315 136.484 57.9299 134.24 56.3265V58.1818H128.399ZM166.203 30.7304V24.924H170.532V19.8048L177.06 13.8266V24.924H183.21V30.7304H177.06V46.8783C177.06 49.4665 177.197 51.0699 177.472 51.6883C177.77 52.2838 178.491 52.5816 179.637 52.5816C180.851 52.5816 182.042 52.3525 183.21 51.8944V57.8383C181.538 58.4338 179.866 58.7315 178.194 58.7315C176.201 58.7315 174.586 58.2963 173.349 57.426C172.112 56.5327 171.334 55.4218 171.013 54.0933C170.692 52.7648 170.532 50.4743 170.532 47.2219V30.7304H166.203ZM229.363 43.2021H201.396C201.808 46.2713 203.022 48.7565 205.038 50.6576C207.053 52.5587 209.63 53.5092 212.768 53.5092C217.326 53.5092 220.934 51.6769 223.591 48.0121L229.363 50.5545C227.484 53.4634 225.045 55.6279 222.044 57.048C219.044 58.4452 215.906 59.1438 212.631 59.1438C207.546 59.1438 203.194 57.5634 199.575 54.4025C195.979 51.2188 194.181 46.9356 194.181 41.5529C194.181 36.4451 195.933 32.2421 199.437 28.9438C202.965 25.6455 207.007 23.9964 211.565 23.9964C216.032 23.9964 220.075 25.6112 223.694 28.8407C227.335 32.0474 229.225 36.8345 229.363 43.2021ZM222.629 38.4608C222.17 36.1245 220.956 34.0172 218.987 32.139C217.017 30.2379 214.6 29.2874 211.737 29.2874C209.126 29.2874 206.893 30.1463 205.038 31.8642C203.182 33.5591 202.049 35.758 201.636 38.4608H222.629ZM246.552 52.3754V30.7304H239.853V24.924H251.774V32.4139C252.507 30.467 253.527 28.8522 254.832 27.5695C256.138 26.2869 257.512 25.4394 258.955 25.0271C260.421 24.6148 262.414 24.4087 264.933 24.4087H266.651V31.0052H265.346C262.024 31.0052 259.539 31.3374 257.89 32.0016C256.264 32.6658 255.05 33.8798 254.248 35.6435C253.469 37.3842 253.08 40.5222 253.08 45.0574V52.3754H260.329V58.1818H239.853V52.3754H246.552ZM281.951 13.6205C281.951 12.5669 282.318 11.6507 283.051 10.8719C283.806 10.0931 284.757 9.70375 285.902 9.70375C286.979 9.70375 287.906 10.0817 288.685 10.8375C289.464 11.5934 289.853 12.521 289.853 13.6205C289.853 14.7199 289.464 15.659 288.685 16.4378C287.906 17.1936 286.979 17.5716 285.902 17.5716C284.803 17.5716 283.864 17.1822 283.085 16.4034C282.329 15.6247 281.951 14.697 281.951 13.6205ZM282.879 52.3754V30.7304H277.691V24.924H289.407V52.3754H294.526V58.1818H277.691V52.3754H282.879ZM338.755 52.3754V58.1818H327.348V54.1277C324.187 57.1969 320.66 58.7315 316.766 58.7315C313.743 58.7315 311.109 57.7466 308.864 55.7768C306.642 53.807 305.531 51.2875 305.531 48.2182C305.531 45.1261 306.711 42.5607 309.07 40.5222C311.452 38.4837 314.315 37.4644 317.659 37.4644C320.774 37.4644 323.786 38.4035 326.695 40.2817V36.9834C326.695 35.2884 326.535 33.9829 326.214 33.0667C325.894 32.1505 325.138 31.3259 323.947 30.593C322.779 29.86 321.244 29.4935 319.343 29.4935C316.067 29.4935 313.697 30.7991 312.231 33.4103L305.978 31.7611C308.749 26.5846 313.536 23.9964 320.339 23.9964C322.836 23.9964 324.989 24.3399 326.798 25.0271C328.631 25.6913 329.994 26.5617 330.887 27.6382C331.78 28.6919 332.376 29.8371 332.673 31.074C332.994 32.3108 333.154 34.2806 333.154 36.9834V52.3754H338.755ZM326.695 45.8132C323.878 43.6144 321.026 42.5149 318.14 42.5149C316.331 42.5149 314.819 43.0417 313.605 44.0954C312.391 45.149 311.784 46.5118 311.784 48.1839C311.784 49.7414 312.311 51.047 313.365 52.1006C314.441 53.1542 315.896 53.681 317.728 53.681C320.889 53.681 323.878 52.3525 326.695 49.6956V45.8132Z" fill="#412F95"/>
<path d="M119.252 54.968C119.25 54.0655 118.903 53.2001 118.251 52.3869L99.6682 8.66159C99.3099 7.81503 97.9168 7.81503 97.5585 8.66159L78.9751 52.3871C78.3237 53.2002 77.9766 54.0654 77.9743 54.9678C77.9742 54.9709 77.9733 54.9738 77.9733 54.9769V54.9773C77.9733 60.1911 88.6069 63.004 98.6133 63.004C108.62 63.004 119.253 60.1911 119.253 54.9773V54.9769C119.253 54.9738 119.252 54.971 119.252 54.968ZM98.6133 60.7106C87.502 60.7106 80.6002 57.5213 80.2958 55.1418L81.06 53.3436C81.0721 53.3132 81.0883 53.2857 81.0978 53.2547L98.6133 12.0423L116.129 53.2547C116.138 53.2857 116.154 53.3132 116.167 53.3436L116.931 55.1418C116.626 57.5213 109.725 60.7106 98.6133 60.7106Z" fill="url(#paint0_linear)"/>
<path d="M89.7603 47.6819C88.1746 47.9607 86.701 48.3112 85.3796 48.7255C84.775 48.9147 84.439 49.5586 84.6271 50.1622C84.7817 50.6527 85.2341 50.9662 85.7222 50.9662C85.8365 50.9662 85.9507 50.9494 86.065 50.9135C87.2923 50.5294 88.6673 50.2024 90.1545 49.9415C90.7794 49.8317 91.1959 49.2372 91.0862 48.6134C90.9764 47.9888 90.3538 47.58 89.7603 47.6819Z" fill="url(#paint1_linear)"/>
<path d="M111.885 48.7345C110.562 48.3202 109.09 47.9685 107.509 47.6874C106.88 47.5799 106.291 47.9909 106.179 48.6157C106.067 49.2394 106.483 49.834 107.106 49.9449C108.593 50.2092 109.97 50.5384 111.2 50.9225C111.314 50.9583 111.431 50.9752 111.543 50.9752C112.031 50.9752 112.483 50.6616 112.638 50.1712C112.826 49.5665 112.49 48.9238 111.885 48.7345Z" fill="url(#paint2_linear)"/>
<path d="M100.855 46.9954C99.3972 46.9372 97.8653 46.9361 96.4119 46.9932C95.7781 47.0167 95.2854 47.5497 95.3078 48.1825C95.3324 48.814 95.8319 49.3257 96.4971 49.2843C97.9035 49.2306 99.3682 49.2317 100.766 49.2866C100.781 49.2877 100.797 49.2877 100.811 49.2877C101.424 49.2877 101.933 48.8028 101.957 48.1858C101.982 47.5532 101.487 47.0201 100.855 46.9954Z" fill="url(#paint3_linear)"/>
<path d="M2.61629 79.4545V72.0603H5.01956C5.87636 72.0603 6.48727 72.1372 6.85227 72.2908C7.59765 72.6136 7.97034 73.236 7.97034 74.1581C7.97034 74.9342 7.66873 75.5432 7.06551 75.9851C6.46613 76.4269 5.63815 76.6478 4.58156 76.6478H3.75165V79.4545H2.61629ZM3.75165 75.7949H4.46053C5.99739 75.7949 6.76582 75.257 6.76582 74.1812C6.76582 73.7278 6.61982 73.4031 6.32782 73.2072C6.03965 73.0112 5.55746 72.9133 4.88124 72.9133H3.75165V75.7949ZM9.59257 79.4545V72.0603H11.6616C12.5222 72.0603 13.1197 72.1314 13.4539 72.2736C14.1686 72.5694 14.5259 73.0919 14.5259 73.8412C14.5259 74.356 14.3972 74.7863 14.1398 75.1321C13.8823 75.4741 13.452 75.793 12.8488 76.0888L15.4653 79.4545H14.0879L11.7538 76.377H10.7279V79.4545H9.59257ZM10.7279 75.5183H11.3273C11.9382 75.5183 12.4223 75.3838 12.7796 75.1148C13.137 74.8459 13.3156 74.4828 13.3156 74.0256C13.3156 73.5991 13.1811 73.3071 12.9122 73.1496C12.6432 72.992 12.1476 72.9133 11.4253 72.9133H10.7279V75.5183ZM17.0069 79.4545V72.0603H22.0036V72.9133H18.1422V75.1552H21.4157V76.0081H18.1422V78.6016H22.2687V79.4545H17.0069ZM25.9426 79.4545L23.0725 72.0603H24.2713L26.6342 77.9388L29.049 72.0603H30.0172L27.0838 79.4545H25.9426ZM31.4666 79.4545V72.0603H36.4633V72.9133H32.6019V75.1552H35.8755V76.0081H32.6019V78.6016H36.7284V79.4545H31.4666ZM38.3045 79.4545V72.0373H39.3765L42.771 77.4144H42.7826V72.0603H43.7105V79.4545H42.6615L39.2439 74.0371H39.2267V79.4545H38.3045ZM47.6668 79.4545V72.9133H44.8255V72.0603H51.6492V72.9133H48.8079V79.4545H47.6668ZM52.9083 79.4545V78.6016H54.8967V72.9133H52.9083V72.0603H58.0261V72.9133H56.0378V78.6016H58.0261V79.4545H52.9083ZM59.9941 79.4545V72.0373H61.0661L64.4606 77.4144H64.4722V72.0603H65.4V79.4545H64.3511L60.9335 74.0371H60.9162V79.4545H59.9941ZM72.7855 72.2159V73.2591C72.0248 72.9094 71.314 72.7346 70.6531 72.7346C69.8885 72.7346 69.2584 73.0151 68.7628 73.576C68.271 74.137 68.0251 74.8516 68.0251 75.72C68.0251 76.5921 68.3036 77.3087 68.8607 77.8697C69.4179 78.4268 70.1287 78.7053 70.9931 78.7053C71.1891 78.7053 71.4388 78.6823 71.7424 78.6362V76.6824H70.3534V75.8295H72.8777V79.2644C72.1054 79.5103 71.3735 79.6332 70.6819 79.6332C69.537 79.6332 68.6052 79.2778 67.8868 78.567C67.1721 77.8562 66.8148 76.9322 66.8148 75.7949C66.8148 74.6307 67.1721 73.6875 67.8868 72.9651C68.6014 72.2428 69.535 71.8817 70.6877 71.8817C71.3409 71.8817 72.0401 71.9931 72.7855 72.2159ZM83.8161 79.4545V72.9133H80.9748V72.0603H87.7985V72.9133H84.9572V79.4545H83.8161ZM88.9136 79.4545V72.0603H90.0489V75.2935H93.1784V72.0603H94.3195V79.4545H93.1784V76.1464H90.0489V79.4545H88.9136ZM96.5353 79.4545V72.0603H101.532V72.9133H97.6707V75.1552H100.944V76.0081H97.6707V78.6016H101.797V79.4545H96.5353ZM110.603 79.4545V72.0373H111.675L115.07 77.4144H115.081V72.0603H116.009V79.4545H114.96L111.543 74.0371H111.525V79.4545H110.603ZM118.225 79.4545V72.0603H123.222V72.9133H119.36V75.1552H122.634V76.0081H119.36V78.6016H123.487V79.4545H118.225ZM124.273 79.4545L127.172 75.6912L124.521 72.0603H125.864L127.864 74.7979L129.979 72.0603H131.085L128.4 75.5298L131.235 79.4545H129.887L127.702 76.4461L125.38 79.4545H124.273ZM134.425 79.4545V72.9133H131.584V72.0603H138.408V72.9133H135.566V79.4545H134.425ZM147.214 79.4545V72.0603H149.617C150.474 72.0603 151.084 72.1372 151.449 72.2908C152.195 72.6136 152.568 73.236 152.568 74.1581C152.568 74.9342 152.266 75.5432 151.663 75.9851C151.063 76.4269 150.235 76.6478 149.179 76.6478H148.349V79.4545H147.214ZM148.349 75.7949H149.058C150.595 75.7949 151.363 75.257 151.363 74.1812C151.363 73.7278 151.217 73.4031 150.925 73.2072C150.637 73.0112 150.155 72.9133 149.478 72.9133H148.349V75.7949ZM153.199 79.4545L156.115 72.0603H157.25L160.166 79.4545H158.962L158.264 77.6045H154.887L154.178 79.4545H153.199ZM155.227 76.7516H157.924L156.57 73.2187L155.227 76.7516ZM161.212 79.4545V72.0373H162.284L165.679 77.4144H165.69V72.0603H166.618V79.4545H165.569L162.152 74.0371H162.134V79.4545H161.212ZM168.338 79.4545V72.0603H170.569C173.028 72.0603 174.257 73.2437 174.257 75.6105C174.257 76.7055 173.99 77.5911 173.456 78.2673C173.122 78.6938 172.709 78.9992 172.217 79.1837C171.729 79.3643 171.078 79.4545 170.263 79.4545H168.338ZM169.474 78.6016H170.044C171.128 78.6016 171.898 78.3864 172.355 77.9561C172.816 77.5258 173.047 76.8035 173.047 75.7891C173.047 74.7594 172.839 74.0237 172.424 73.5818C172.009 73.1361 171.318 72.9133 170.35 72.9133H169.474V78.6016ZM176.064 79.4545V72.0603H181.061V72.9133H177.199V75.1552H180.473V76.0081H177.199V78.6016H181.326V79.4545H176.064ZM182.591 79.4545V72.0603H183.956L185.582 76.6133H185.593L187.19 72.0603H188.613V79.4545H187.685V73.1092H187.674L186.008 77.8927H185.051L183.392 73.2418H183.38V79.4545H182.591ZM190.276 79.4545V78.6016H192.264V72.9133H190.276V72.0603H195.393V72.9133H193.405V78.6016H195.393V79.4545H190.276ZM203.165 79.224C202.404 79.4968 201.688 79.6332 201.015 79.6332C199.84 79.6332 198.893 79.2816 198.174 78.5785C197.456 77.8716 197.096 76.9437 197.096 75.7949C197.096 74.6307 197.454 73.6875 198.168 72.9651C198.883 72.2428 199.817 71.8817 200.969 71.8817C201.622 71.8817 202.322 71.9931 203.067 72.2159V73.2591C202.306 72.9094 201.596 72.7346 200.935 72.7346C200.17 72.7346 199.54 73.0151 199.044 73.576C198.553 74.137 198.307 74.8516 198.307 75.72C198.307 76.596 198.585 77.3125 199.142 77.8697C199.699 78.4268 200.416 78.7053 201.292 78.7053C201.822 78.7053 202.447 78.567 203.165 78.2904V79.224ZM212.034 79.4545V72.0603H214.42C216.149 72.0603 217.014 72.6328 217.014 73.7778C217.014 74.2158 216.864 74.5942 216.564 74.9131C216.269 75.2282 215.854 75.4529 215.319 75.5874C216.691 75.8679 217.377 76.5191 217.377 77.5412C217.377 78.1252 217.175 78.5824 216.772 78.9128C216.511 79.1318 216.213 79.2778 215.879 79.3508C215.544 79.42 215.006 79.4545 214.265 79.4545H212.034ZM213.17 75.2589H213.567C215.097 75.2589 215.861 74.8324 215.861 73.9795C215.861 73.5607 215.713 73.2783 215.417 73.1323C215.122 72.9863 214.549 72.9133 213.7 72.9133H213.17V75.2589ZM213.17 78.6016H214.196C214.945 78.6016 215.46 78.5247 215.74 78.3711C216.025 78.2174 216.167 77.935 216.167 77.5239C216.167 77.0474 215.934 76.669 215.469 76.3885C215.008 76.108 214.38 75.9678 213.585 75.9678H213.17V78.6016ZM219.443 79.4545V72.0603H224.44V72.9133H220.578V75.1552H223.852V76.0081H220.578V78.6016H224.705V79.4545H219.443ZM226.851 79.4545V72.0603H232.113V72.9133H227.987V75.4606H231.508V76.3136H227.987V79.4545H226.851ZM233.015 75.7545C233.015 74.575 233.303 73.6356 233.88 72.9363C234.46 72.2332 235.238 71.8817 236.214 71.8817C237.19 71.8817 237.966 72.2332 238.542 72.9363C239.122 73.6356 239.412 74.575 239.412 75.7545C239.412 76.9379 239.122 77.8812 238.542 78.5843C237.966 79.2836 237.19 79.6332 236.214 79.6332C235.238 79.6332 234.46 79.2836 233.88 78.5843C233.303 77.8812 233.015 76.9379 233.015 75.7545ZM234.225 75.7545C234.225 76.7228 234.396 77.4701 234.738 77.9964C235.084 78.519 235.576 78.7802 236.214 78.7802C236.852 78.7802 237.343 78.519 237.689 77.9964C238.035 77.4701 238.208 76.7228 238.208 75.7545C238.208 74.7902 238.035 74.0467 237.689 73.5242C237.343 72.9978 236.852 72.7346 236.214 72.7346C235.576 72.7346 235.084 72.9978 234.738 73.5242C234.396 74.0467 234.225 74.7902 234.225 75.7545ZM240.948 79.4545V72.0603H243.017C243.878 72.0603 244.475 72.1314 244.809 72.2736C245.524 72.5694 245.881 73.0919 245.881 73.8412C245.881 74.356 245.753 74.7863 245.495 75.1321C245.238 75.4741 244.808 75.793 244.204 76.0888L246.821 79.4545H245.443L243.109 76.377H242.083V79.4545H240.948ZM242.083 75.5183H242.683C243.294 75.5183 243.778 75.3838 244.135 75.1148C244.493 74.8459 244.671 74.4828 244.671 74.0256C244.671 73.5991 244.537 73.3071 244.268 73.1496C243.999 72.992 243.503 72.9133 242.781 72.9133H242.083V75.5183ZM248.362 79.4545V72.0603H253.359V72.9133H249.498V75.1552H252.771V76.0081H249.498V78.6016H253.624V79.4545H248.362ZM262.574 79.4545V78.6016H264.563V72.9133H262.574V72.0603H267.692V72.9133H265.704V78.6016H267.692V79.4545H262.574ZM271.792 79.4545V72.9133H268.951V72.0603H275.775V72.9133H272.934V79.4545H271.792ZM284.12 79.4545V72.0603H285.255V75.2935H288.385V72.0603H289.526V79.4545H288.385V76.1464H285.255V79.4545H284.12ZM290.566 79.4545L293.482 72.0603H294.617L297.534 79.4545H296.329L295.632 77.6045H292.255L291.546 79.4545H290.566ZM292.595 76.7516H295.292L293.937 73.2187L292.595 76.7516ZM299.041 79.4545V72.0603H301.444C302.301 72.0603 302.912 72.1372 303.277 72.2908C304.022 72.6136 304.395 73.236 304.395 74.1581C304.395 74.9342 304.093 75.5432 303.49 75.9851C302.89 76.4269 302.062 76.6478 301.006 76.6478H300.176V79.4545H299.041ZM300.176 75.7949H300.885C302.422 75.7949 303.19 75.257 303.19 74.1812C303.19 73.7278 303.044 73.4031 302.752 73.2072C302.464 73.0112 301.982 72.9133 301.306 72.9133H300.176V75.7949ZM306.27 79.4545V72.0603H308.674C309.531 72.0603 310.141 72.1372 310.506 72.2908C311.252 72.6136 311.625 73.236 311.625 74.1581C311.625 74.9342 311.323 75.5432 310.72 75.9851C310.12 76.4269 309.292 76.6478 308.236 76.6478H307.406V79.4545H306.27ZM307.406 75.7949H308.115C309.652 75.7949 310.42 75.257 310.42 74.1812C310.42 73.7278 310.274 73.4031 309.982 73.2072C309.694 73.0112 309.212 72.9133 308.535 72.9133H307.406V75.7949ZM313.431 79.4545V72.0603H318.428V72.9133H314.567V75.1552H317.84V76.0081H314.567V78.6016H318.693V79.4545H313.431ZM320.269 79.4545V72.0373H321.341L324.736 77.4144H324.747V72.0603H325.675V79.4545H324.626L321.209 74.0371H321.191V79.4545H320.269ZM332.467 72.2332V73.2187C331.633 72.896 330.892 72.7346 330.242 72.7346C329.216 72.7346 328.704 73.0804 328.704 73.772C328.704 74.0525 328.8 74.2792 328.992 74.4521C329.184 74.6211 329.539 74.7959 330.058 74.9765L330.784 75.2301L331.476 75.4664C332.548 75.8429 333.084 76.4807 333.084 77.3798C333.084 78.0637 332.809 78.6112 332.259 79.0223C331.714 79.4296 330.982 79.6332 330.064 79.6332C329.426 79.6332 328.602 79.4968 327.591 79.224V78.1002C328.598 78.5536 329.434 78.7802 330.098 78.7802C330.659 78.7802 331.107 78.6707 331.441 78.4517C331.775 78.2289 331.942 77.9311 331.942 77.5584C331.942 77.2741 331.843 77.0494 331.643 76.8841C331.447 76.7189 331.04 76.523 330.421 76.2963L329.66 76.0197C328.903 75.7392 328.377 75.451 328.081 75.1552C327.789 74.8593 327.643 74.4655 327.643 73.9737C327.643 73.309 327.868 72.7942 328.317 72.4292C328.771 72.0642 329.407 71.8817 330.225 71.8817C330.89 71.8817 331.637 71.9988 332.467 72.2332ZM336.579 79.4545V77.7486H338.285V79.4545H336.579Z" fill="#412F95"/>
</g>
<defs>
<linearGradient id="paint0_linear" x1="98.6133" y1="8.02667" x2="98.6133" y2="63.004" gradientUnits="userSpaceOnUse">
<stop stop-color="#6348FF"/>
<stop offset="1" stop-color="#412F95" stop-opacity="0.6"/>
</linearGradient>
<linearGradient id="paint1_linear" x1="87.8393" y1="47.6663" x2="87.8393" y2="50.9662" gradientUnits="userSpaceOnUse">
<stop stop-color="#6348FF"/>
<stop offset="1" stop-color="#412F95" stop-opacity="0.6"/>
</linearGradient>
<linearGradient id="paint2_linear" x1="109.425" y1="47.6703" x2="109.425" y2="50.9752" gradientUnits="userSpaceOnUse">
<stop stop-color="#6348FF"/>
<stop offset="1" stop-color="#412F95" stop-opacity="0.6"/>
</linearGradient>
<linearGradient id="paint3_linear" x1="98.6326" y1="46.951" x2="98.6326" y2="49.2877" gradientUnits="userSpaceOnUse">
<stop stop-color="#6348FF"/>
<stop offset="1" stop-color="#412F95" stop-opacity="0.6"/>
</linearGradient>
<clipPath id="clip0">
<rect width="340.091" height="86" fill="white"/>
</clipPath>
</defs>
</svg>
