<svg width="275" height="64" viewBox="0 0 275 64" fill="none" xmlns="http://www.w3.org/2000/svg">
<path d="M1.83062 52V47.3049H6.60904V18.051H1.83062V13.3559H11.7764V28.9136C14.4249 25.8761 17.6753 24.3574 21.5277 24.3574C25.2319 24.3574 28.3342 25.6353 30.8345 28.1912C33.3534 30.7286 34.6128 34.0809 34.6128 38.2481C34.6128 42.2487 33.3812 45.6195 30.9179 48.3606C28.4731 51.0832 25.3338 52.4445 21.4999 52.4445C19.3515 52.4445 17.3883 51.9815 15.6102 51.0554C13.8322 50.1294 12.5543 49.1015 11.7764 47.9717V52H1.83062ZM11.9431 38.6093C11.9431 41.406 12.7951 43.6285 14.499 45.2769C16.2214 46.9067 18.2032 47.7216 20.4442 47.7216C22.7964 47.7216 24.8245 46.8512 26.5284 45.1102C28.2323 43.3692 29.0843 41.0356 29.0843 38.1092C29.0843 35.2755 28.2323 33.0808 26.5284 31.525C24.843 29.9507 22.8612 29.1636 20.5831 29.1636C18.3421 29.1636 16.3418 29.9785 14.5823 31.6084C12.8228 33.2197 11.9431 35.5533 11.9431 38.6093ZM46.9845 47.3049V18.051H42.2061V13.3559H52.263V47.3049H56.3746V52H42.2061V47.3049H46.9845ZM103.824 52V42.7765H108.547V43.6655C108.714 44.925 109.39 45.9621 110.575 46.7771C111.779 47.592 113.196 47.9995 114.826 47.9995C116.53 47.9995 117.891 47.7031 118.91 47.1105C119.928 46.5178 120.438 45.6936 120.438 44.6379C120.438 43.6192 120.012 42.8691 119.16 42.3876C118.326 41.906 116.659 41.4615 114.159 41.0541C110.455 40.4244 107.806 39.415 106.214 38.0259C104.639 36.6183 103.852 34.8032 103.852 32.5807C103.852 30.3397 104.713 28.4691 106.436 26.9689C108.158 25.4501 110.427 24.6908 113.242 24.6908C115.78 24.6908 117.965 25.2094 119.799 26.2465V25.1075H124.494V34.0254H119.799V32.3862C118.373 30.1822 116.298 29.0802 113.576 29.0802C112.187 29.0802 111.038 29.3858 110.131 29.997C109.242 30.5897 108.797 31.3861 108.797 32.3862C108.797 33.4049 109.205 34.1087 110.02 34.4976C110.853 34.8681 112.631 35.2663 115.354 35.6922C117.965 36.0997 119.938 36.5813 121.271 37.1369C122.605 37.674 123.707 38.5815 124.577 39.8595C125.466 41.1189 125.911 42.5913 125.911 44.2767C125.911 46.7771 124.948 48.7681 123.021 50.2498C121.114 51.7129 118.632 52.4445 115.576 52.4445C112.705 52.4445 110.362 51.7963 108.547 50.4998V52H103.824ZM134.393 29.8026V25.1075H137.893V20.968L143.172 16.1341V25.1075H148.145V29.8026H143.172V42.8599C143.172 44.9528 143.283 46.2492 143.505 46.7493C143.746 47.2308 144.329 47.4716 145.255 47.4716C146.237 47.4716 147.2 47.2864 148.145 46.916V51.7222C146.793 52.2037 145.441 52.4445 144.089 52.4445C142.477 52.4445 141.172 52.0926 140.171 51.3888C139.171 50.6665 138.542 49.7682 138.282 48.694C138.023 47.6198 137.893 45.7677 137.893 43.1377V29.8026H134.393ZM185.464 39.8873H162.85C163.183 42.3691 164.165 44.3786 165.795 45.9158C167.425 47.4531 169.508 48.2217 172.046 48.2217C175.731 48.2217 178.649 46.74 180.797 43.7767L185.464 45.8325C183.946 48.1847 181.973 49.9349 179.547 51.0832C177.121 52.213 174.583 52.7779 171.935 52.7779C167.823 52.7779 164.304 51.4999 161.378 48.944C158.47 46.3696 157.016 42.9062 157.016 38.5537C157.016 34.4236 158.433 31.025 161.267 28.3579C164.119 25.6909 167.388 24.3574 171.073 24.3574C174.685 24.3574 177.954 25.6631 180.88 28.2746C183.825 30.8675 185.353 34.7384 185.464 39.8873ZM180.019 36.0534C179.649 34.1643 178.667 32.4603 177.074 30.9416C175.481 29.4044 173.527 28.6357 171.212 28.6357C169.101 28.6357 167.295 29.3303 165.795 30.7194C164.295 32.0899 163.378 33.8679 163.045 36.0534H180.019ZM199.364 47.3049V29.8026H193.946V25.1075H203.587V31.1639C204.179 29.5896 205.004 28.2838 206.059 27.2467C207.115 26.2095 208.226 25.5242 209.393 25.1908C210.578 24.8575 212.19 24.6908 214.227 24.6908H215.616V30.0248H214.56C211.875 30.0248 209.865 30.2934 208.532 30.8305C207.217 31.3676 206.235 32.3492 205.587 33.7753C204.957 35.1829 204.642 37.7203 204.642 41.3875V47.3049H210.504V52H193.946V47.3049H199.364ZM227.988 15.9674C227.988 15.1154 228.284 14.3746 228.877 13.7448C229.488 13.1151 230.257 12.8003 231.183 12.8003C232.053 12.8003 232.803 13.1059 233.433 13.7171C234.063 14.3283 234.377 15.0784 234.377 15.9674C234.377 16.8564 234.063 17.6157 233.433 18.2455C232.803 18.8566 232.053 19.1622 231.183 19.1622C230.294 19.1622 229.534 18.8474 228.905 18.2177C228.293 17.588 227.988 16.8379 227.988 15.9674ZM228.738 47.3049V29.8026H224.543V25.1075H234.016V47.3049H238.156V52H224.543V47.3049H228.738ZM273.919 47.3049V52H264.696V48.7218C262.14 51.2036 259.288 52.4445 256.139 52.4445C253.695 52.4445 251.565 51.6481 249.75 50.0553C247.953 48.4625 247.055 46.4252 247.055 43.9434C247.055 41.443 248.009 39.3687 249.916 37.7203C251.842 36.0719 254.158 35.2477 256.862 35.2477C259.38 35.2477 261.816 36.0071 264.168 37.5258V34.8588C264.168 33.4882 264.039 32.4325 263.779 31.6917C263.52 30.9509 262.909 30.2841 261.946 29.6914C261.001 29.0988 259.76 28.8024 258.223 28.8024C255.574 28.8024 253.658 29.8581 252.472 31.9695L247.416 30.636C249.657 26.4503 253.528 24.3574 259.029 24.3574C261.047 24.3574 262.788 24.6352 264.252 25.1908C265.733 25.7279 266.835 26.4317 267.558 27.3022C268.28 28.1542 268.761 29.0802 269.002 30.0804C269.261 31.0805 269.391 32.6733 269.391 34.8588V47.3049H273.919ZM264.168 41.9987C261.89 40.2206 259.584 39.3316 257.251 39.3316C255.787 39.3316 254.565 39.7576 253.583 40.6096C252.602 41.4615 252.111 42.5635 252.111 43.9156C252.111 45.175 252.537 46.2307 253.389 47.0827C254.259 47.9346 255.436 48.3606 256.917 48.3606C259.473 48.3606 261.89 47.2864 264.168 45.138V41.9987Z" fill="#412F95"/>
<path d="M95.3696 47.2918C95.3678 46.563 95.0875 45.8643 94.5613 45.2076L79.5555 9.89967C79.2662 9.21608 78.1413 9.21608 77.852 9.89967L62.846 45.2077C62.3199 45.8643 62.0396 46.563 62.0378 47.2916C62.0377 47.2941 62.037 47.2965 62.037 47.299V47.2993C62.037 51.5094 70.6236 53.7808 78.7037 53.7808C86.7838 53.7808 95.3704 51.5094 95.3704 47.2993V47.299C95.3704 47.2965 95.3696 47.2942 95.3696 47.2918ZM78.7037 51.9289C69.7314 51.9289 64.1582 49.3536 63.9124 47.4321L64.5295 45.9801C64.5393 45.9556 64.5523 45.9334 64.56 45.9084L78.7037 12.6295L92.8474 45.9084C92.8551 45.9334 92.868 45.9556 92.8779 45.9801L93.495 47.4321C93.2492 49.3536 87.676 51.9289 78.7037 51.9289Z" fill="url(#paint0_linear)"/>
<path d="M71.5549 41.4083C70.2745 41.6334 69.0846 41.9164 68.0176 42.251C67.5293 42.4037 67.258 42.9237 67.4099 43.4111C67.5348 43.8072 67.9 44.0603 68.2942 44.0603C68.3865 44.0603 68.4787 44.0468 68.571 44.0178C69.562 43.7077 70.6724 43.4436 71.8732 43.2329C72.3778 43.1443 72.7142 42.6642 72.6256 42.1605C72.5369 41.6561 72.0342 41.3261 71.5549 41.4083Z" fill="url(#paint1_linear)"/>
<path d="M89.4206 42.2583C88.3518 41.9237 87.1637 41.6398 85.8869 41.4128C85.3788 41.326 84.9032 41.6578 84.8127 42.1623C84.7223 42.666 85.0586 43.1461 85.5614 43.2357C86.7622 43.4491 87.8744 43.7149 88.8672 44.0251C88.9595 44.054 89.0535 44.0676 89.144 44.0676C89.5382 44.0676 89.9035 43.8144 90.0283 43.4184C90.1802 42.9301 89.9089 42.4111 89.4206 42.2583Z" fill="url(#paint2_linear)"/>
<path d="M80.514 40.854C79.3367 40.807 78.0997 40.8061 76.9261 40.8522C76.4143 40.8712 76.0164 41.3016 76.0345 41.8125C76.0544 42.3225 76.4577 42.7357 76.9948 42.7023C78.1305 42.6589 79.3132 42.6597 80.4417 42.7041C80.4544 42.705 80.4671 42.705 80.4779 42.705C80.9734 42.705 81.384 42.3135 81.4039 41.8152C81.4237 41.3044 81.024 40.8739 80.514 40.854Z" fill="url(#paint3_linear)"/>
<defs>
<linearGradient id="paint0_linear" x1="78.7037" y1="9.38698" x2="78.7037" y2="53.7808" gradientUnits="userSpaceOnUse">
<stop stop-color="#6348FF"/>
<stop offset="1" stop-color="#412F95" stop-opacity="0.6"/>
</linearGradient>
<linearGradient id="paint1_linear" x1="70.0038" y1="41.3957" x2="70.0038" y2="44.0603" gradientUnits="userSpaceOnUse">
<stop stop-color="#6348FF"/>
<stop offset="1" stop-color="#412F95" stop-opacity="0.6"/>
</linearGradient>
<linearGradient id="paint2_linear" x1="87.4343" y1="41.399" x2="87.4343" y2="44.0676" gradientUnits="userSpaceOnUse">
<stop stop-color="#6348FF"/>
<stop offset="1" stop-color="#412F95" stop-opacity="0.6"/>
</linearGradient>
<linearGradient id="paint3_linear" x1="78.7192" y1="40.8182" x2="78.7192" y2="42.705" gradientUnits="userSpaceOnUse">
<stop stop-color="#6348FF"/>
<stop offset="1" stop-color="#412F95" stop-opacity="0.6"/>
</linearGradient>
</defs>
</svg>
