<svg width="34" height="46" viewBox="0 0 34 46" fill="none" xmlns="http://www.w3.org/2000/svg">
<path d="M33.9992 38.6629C33.9973 37.9196 33.7114 37.2068 33.1748 36.537L17.8689 0.522949C17.5737 -0.174316 16.4263 -0.174316 16.1312 0.522949L0.82512 36.5372C0.288557 37.2069 0.00265615 37.9195 0.000796775 38.6627C0.000708233 38.6653 0 38.6677 0 38.6702V38.6706C0 42.9649 8.75828 45.2817 17 45.2817C25.2417 45.2817 34 42.9649 34 38.6706V38.6702C34 38.6677 33.9992 38.6654 33.9992 38.6629ZM17 43.3928C7.84824 43.3928 2.1636 40.7659 1.91285 38.8061L2.5423 37.325C2.5523 37.3 2.56558 37.2773 2.57346 37.2518L17 3.30741L31.4265 37.2518C31.4344 37.2773 31.4476 37.3 31.4577 37.325L32.0871 38.8061C31.8364 40.7659 26.1518 43.3928 17 43.3928Z" fill="#6348FF"/>
<path d="M9.70823 32.6617C8.40224 32.8914 7.18851 33.18 6.10016 33.5213C5.60211 33.6771 5.32542 34.2075 5.48037 34.7046C5.60769 35.1087 5.98027 35.3668 6.38234 35.3668C6.47646 35.3668 6.57049 35.353 6.66461 35.3235C7.67549 35.0071 8.80803 34.7378 10.0329 34.5229C10.5476 34.4325 10.8907 33.9427 10.8003 33.429C10.7099 32.9145 10.1971 32.5779 9.70823 32.6617Z" fill="#6348FF"/>
<path d="M27.9312 33.5287C26.841 33.1875 25.6292 32.8979 24.3269 32.6663C23.8086 32.5778 23.3234 32.9163 23.2312 33.4309C23.1389 33.9446 23.482 34.4343 23.9949 34.5257C25.2197 34.7433 26.3541 35.0145 27.3668 35.3309C27.4609 35.3604 27.5568 35.3743 27.6491 35.3743C28.0512 35.3743 28.4238 35.116 28.5511 34.7121C28.706 34.214 28.4293 33.6846 27.9312 33.5287Z" fill="#6348FF"/>
<path d="M18.8466 32.0964C17.6457 32.0484 16.384 32.0475 15.1869 32.0945C14.6648 32.1139 14.259 32.5529 14.2775 33.0741C14.2977 33.5942 14.7091 34.0157 15.257 33.9816C16.4154 33.9373 17.6218 33.9382 18.7728 33.9835C18.7857 33.9843 18.7987 33.9843 18.8097 33.9843C19.3151 33.9843 19.7339 33.585 19.7542 33.0768C19.7744 32.5557 19.3667 32.1167 18.8466 32.0964Z" fill="#6348FF"/>
</svg>
