<svg width="76" height="102" viewBox="0 0 76 102" fill="none" xmlns="http://www.w3.org/2000/svg">
<path d="M75.9982 86.4229C75.9941 84.7614 75.355 83.1682 74.1554 81.671L39.9422 1.16895C39.2825 -0.389648 36.7177 -0.389648 36.058 1.16895L1.84439 81.6714C0.64501 83.1684 0.00593728 84.7612 0.00178103 86.4225C0.00158311 86.4283 0 86.4336 0 86.4394V86.4402C0 96.0391 19.5773 101.218 38 101.218C56.4227 101.218 76 96.0391 76 86.4402V86.4394C76 86.4336 75.9982 86.4285 75.9982 86.4229ZM38 96.9956C17.5431 96.9956 4.83629 91.1239 4.27579 86.743L5.68278 83.4324C5.70515 83.3764 5.73483 83.3257 5.75245 83.2687L38 7.39303L70.2476 83.2687C70.2652 83.3257 70.2947 83.3764 70.3172 83.4324L71.7242 86.743C71.1637 91.1239 58.4569 96.9956 38 96.9956Z" fill="#6348FF"/>
<path d="M21.7008 73.0085C18.7815 73.5219 16.0685 74.1671 13.6357 74.9299C12.5224 75.2782 11.9039 76.4638 12.2502 77.5751C12.5349 78.4782 13.3677 79.0553 14.2664 79.0553C14.4768 79.0553 14.687 79.0244 14.8974 78.9583C17.157 78.2512 19.6885 77.6491 22.4265 77.1687C23.577 76.9667 24.3439 75.872 24.1419 74.7237C23.9398 73.5736 22.7935 72.8211 21.7008 73.0085Z" fill="#6348FF"/>
<path d="M62.4345 74.9465C59.9976 74.1838 57.2887 73.5364 54.3778 73.0188C53.2192 72.8209 52.1348 73.5776 51.9285 74.7278C51.7223 75.8762 52.4892 76.9708 53.6356 77.1751C56.3734 77.6616 58.9093 78.2678 61.1728 78.9749C61.3832 79.0408 61.5976 79.0719 61.8038 79.0719C62.7027 79.0719 63.5356 78.4946 63.8202 77.5917C64.1663 76.4784 63.5478 75.2951 62.4345 74.9465Z" fill="#6348FF"/>
<path d="M42.1276 71.7448C39.4432 71.6376 36.6229 71.6356 33.9471 71.7407C32.7802 71.784 31.8731 72.7653 31.9143 73.9302C31.9596 75.093 32.8791 76.0351 34.1038 75.9589C36.6932 75.8599 39.3898 75.8619 41.9627 75.963C41.9916 75.965 42.0205 75.965 42.0452 75.965C43.1749 75.965 44.1111 75.0724 44.1564 73.9364C44.2015 72.7716 43.2903 71.7902 42.1276 71.7448Z" fill="#6348FF"/>
</svg>
